<?xml version="1.0" encoding="utf-8"?>
<!-- Generator: Adobe Illustrator 17.0.0, SVG Export Plug-In . SVG Version: 6.00 Build 0)  -->
<!DOCTYPE svg PUBLIC "-//W3C//DTD SVG 1.1//EN" "http://www.w3.org/Graphics/SVG/1.1/DTD/svg11.dtd">
<svg version="1.1" id="Layer_1" xmlns="http://www.w3.org/2000/svg" xmlns:xlink="http://www.w3.org/1999/xlink" x="0px" y="0px"
	 width="222px" height="267.243px" viewBox="0 0 222 267.243" enable-background="new 0 0 222 267.243" xml:space="preserve">
<path fill-rule="evenodd" clip-rule="evenodd" fill="#040202" d="M0,105c0,24.339,2.292,38.868,13.679,59.321
	C19.365,174.534,33.082,192.028,42,198c2.578-1.727,5.536-5.516,12.59-10.41c29.471-20.443,64.812-22.95,97.706-8.887
	C167.674,185.277,175.169,194.765,180,198c20.101-13.461,42-51.548,42-80c0-30.802-2.769-45.779-19.79-71.21
	C185.76,22.214,150.126,0,119,0C95.512,0,83.26,0.267,61.996,10.996C49.412,17.345,41.73,22.783,31.75,32.75
	C21.712,42.774,17.064,49.982,10.331,63.331C4.793,74.312,0,89.077,0,105 M26,114c0-25.846,6.372-44.918,24.25-62.75
	c7.281-7.262,12.6-11.701,22.406-16.594c29.42-14.68,61.404-10.827,88.559,7.13c5.212,3.447,15.883,14.277,19.394,19.606
	c3.128,4.748,4.912,7.505,7.408,12.592c23.48,47.861-9.597,88.449-10.016,90.016c-3.234-0.863-10.045-5.32-13.184-6.816
	C126.914,139.122,79.836,140.672,45,164c-1.371-2.048-1.99-2.29-3.592-4.408C33.113,148.63,26,128.713,26,114z"/>
<path fill-rule="evenodd" clip-rule="evenodd" fill="#040202" d="M60,216l15.228,15.773C84.351,225.961,92.117,217,111,217
	c9.459,0,21.728,4.192,28.743,9.258c2.733,1.973,4.851,4.13,7.257,5.742l15.228-15.773C155.394,206.249,132.002,195,117,195
	c-15.959,0-23.263-0.238-38.022,6.977C73.363,204.722,63.193,211.231,60,216"/>
<path fill-rule="evenodd" clip-rule="evenodd" fill="#040202" d="M93,249l17.757,18.243l18.486-18
	C125.826,244.26,118.94,241,111,241S96.174,244.26,93,249"/>
</svg>
