<?xml version="1.0" encoding="UTF-8"?>
<!DOCTYPE svg PUBLIC "-//W3C//DTD SVG 1.1//EN" "http://www.w3.org/Graphics/SVG/1.1/DTD/svg11.dtd">
<!-- Creator: CorelDRAW X7 -->
<svg xmlns="http://www.w3.org/2000/svg" xml:space="preserve" width="1283px" height="2600px" version="1.1" style="shape-rendering:geometricPrecision; text-rendering:geometricPrecision; image-rendering:optimizeQuality; fill-rule:evenodd; clip-rule:evenodd"
viewBox="0 0 1287 2608"
 xmlns:xlink="http://www.w3.org/1999/xlink">
 <defs>
  <style type="text/css">
   <![CDATA[
    .fil0 {fill:#161717}
    .fil1 {fill:#EF7F22}
   ]]>
  </style>
 </defs>
 <g id="Layer_x0020_1">
  <metadata id="CorelCorpID_0Corel-Layer"/>
  <path class="fil0" d="M1273 562l-12 678 0 1c-1,12 -6,21 -12,30 -1,2 -2,4 -3,6l0 0 -212 407c-3,8 -11,15 -22,20l0 0c-8,4 -17,7 -29,11l8 22 1 3 0 1 0 1c0,2 1,3 1,4 0,2 -1,3 -1,5 0,1 -1,3 -2,5l0 0 0 1 0 0c-3,5 -6,11 -9,17 -7,12 -15,25 -16,36l0 269c0,5 -2,9 -4,13 -2,4 -6,7 -9,10l0 0 -46 36c-3,3 -7,6 -13,8 -2,21 -4,53 -5,89 -3,58 -7,126 -14,170l0 0 -6 36c-3,6 -16,20 -36,40 -8,7 -17,16 -28,26l2 0 -35 29c-13,11 -26,22 -40,33 -12,10 -26,20 -40,31 -7,5 -35,7 -48,7 -2,0 -4,0 -5,1l-1 0 -1 0c-2,-1 -4,-1 -6,-1 -13,0 -41,-2 -48,-7 -14,-11 -27,-21 -40,-31 -14,-11 -27,-22 -39,-33l-35 -29 1 0c-11,-10 -20,-19 -28,-26 -20,-20 -33,-34 -36,-40l-5 -34 0 0c-8,-44 -11,-113 -14,-172 -2,-36 -4,-68 -6,-89 -5,-2 -10,-5 -13,-8l-45 -36 0 0c-4,-3 -7,-6 -10,-10 -2,-4 -3,-8 -3,-13l0 -269c-2,-11 -9,-24 -16,-36 -4,-6 -7,-12 -10,-17l0 0 0 -1 0 0c-1,-2 -1,-4 -2,-5 0,-2 0,-3 0,-5 0,-1 0,-2 0,-4l0 -1 1 -1 1 -3 7 -22c-11,-4 -21,-7 -28,-11l0 0c-12,-5 -20,-12 -23,-20l-211 -407 0 0c-2,-2 -3,-4 -4,-6 -6,-9 -11,-18 -11,-30l0 -1 -13 -678c39,11 124,25 195,32 113,9 268,15 440,15l2 0 2 0c171,0 327,-6 439,-15 68,-6 152,-20 195,-32zm-338 1274c-17,8 -40,14 -69,19 -57,11 -136,18 -224,18l-4 0 -4 0c-88,0 -168,-7 -225,-18 -32,-5 -57,-13 -74,-22l0 -17c12,8 39,16 77,23 23,4 50,7 79,10l0 -1c44,5 94,8 147,8 53,0 103,-3 146,-8l0 1c30,-3 56,-6 79,-10 33,-6 57,-13 72,-20l0 17zm-613 -60c10,3 22,7 35,10 33,7 74,13 123,17 46,4 98,7 154,7l4 0 4 0c55,0 108,-3 154,-7 48,-4 90,-10 122,-17 11,-3 20,-5 29,-8l9 -21c-11,4 -25,8 -42,12 -31,7 -72,13 -120,17 -5,1 -11,1 -17,2l0 -1c-42,3 -90,5 -139,6 -50,-1 -97,-3 -140,-6l0 1c-6,-1 -11,-1 -17,-2 -48,-4 -89,-10 -120,-17 -18,-4 -33,-9 -44,-13 -2,-1 -4,-2 -5,-3 4,9 8,20 10,23zm629 -63c-6,1 -11,2 -17,3 -36,6 -81,11 -131,15 -48,3 -102,5 -159,5l-6 0 -7 0c-57,0 -110,-2 -158,-5 -51,-4 -95,-9 -132,-15 -7,-1 -15,-3 -22,-4l5 -16c6,1 13,2 20,3 36,6 80,11 130,15 12,1 24,1 37,2l0 -1c40,3 82,4 127,4l0 0c44,0 87,-1 126,-4l0 1c13,-1 26,-1 38,-2 50,-4 94,-9 129,-15 5,0 10,-1 15,-2l5 16zm-389 -743c2,7 5,13 9,19 9,-5 19,-10 30,-13 11,-3 23,-5 36,-5 12,0 25,2 36,5 11,3 20,8 29,13 5,-6 8,-12 10,-19 3,-8 4,-17 4,-25 0,-22 -9,-42 -23,-57 -14,-14 -34,-23 -56,-23 -22,0 -42,9 -56,23 -15,15 -24,35 -24,57 0,8 2,17 5,25zm-7 -107c21,-21 50,-34 82,-34 32,0 61,13 82,34 21,21 34,49 34,82 0,13 -3,25 -7,37 -4,13 -10,24 -18,34 -3,4 -6,7 -9,10 -3,3 -7,6 -10,9l-1 1 -3 2 -3 -3c-3,-3 -6,-6 -10,-9 -3,-3 -7,-5 -11,-8 -6,-4 -14,-7 -21,-9 -7,-2 -15,-3 -23,-3 -8,0 -16,1 -23,3 -8,2 -15,5 -22,9 -3,3 -7,5 -11,8 -3,3 -6,6 -9,9l-3 3 -4 -2 0 -1c-4,-3 -7,-6 -10,-9 -4,-3 -6,-6 -9,-10 -8,-10 -14,-21 -19,-34 -4,-12 -6,-24 -6,-37 0,-33 13,-61 34,-82zm53 166c9,-4 19,-6 29,-6 10,0 20,2 29,6 9,4 17,10 24,17l3 4 -3 3 -17 15 -4 3 -3 -3c-4,-4 -8,-7 -13,-10 -5,-2 -10,-3 -16,-3 -6,0 -11,1 -16,3 -5,3 -10,6 -13,10l-4 3 -3 -3 -17 -15 -3 -3 3 -4c6,-7 15,-13 24,-17zm18 40c3,-1 7,-2 11,-2 4,0 8,1 11,2 4,2 7,4 9,7l3 3 -3 4 -17 15 -3 3 -3 -3 -17 -15 -4 -4 3 -3c3,-3 6,-5 10,-7zm-626 -521c0,-3 1,-5 3,-8 1,-1 2,-3 3,-4l20 -33c16,4 30,7 46,11 40,11 117,20 217,26 97,6 216,9 346,9l2 1 2 0c129,0 248,-4 346,-10 99,-6 176,-15 216,-25 17,-5 30,-8 47,-12l19 33c2,1 3,3 4,4 1,3 2,5 2,8 -38,9 -122,22 -196,28 -112,10 -267,16 -438,16l-2 0 -2 0c-171,0 -326,-6 -438,-16 -79,-7 -164,-19 -197,-28zm644 1668l0 17c-2,0 -5,0 -7,0l-4 0 -4 0c-85,0 -161,-6 -218,-16l1 10c0,8 0,17 1,25 69,12 151,16 220,16 4,0 7,0 11,0l0 17c-2,1 -5,1 -7,1l-4 0 -4 0c-83,-1 -159,-7 -215,-16 1,13 1,27 2,40 69,12 149,15 217,16 4,0 7,0 11,0l0 17c-2,0 -5,0 -7,0l-4 0 -4 0c-81,0 -155,-6 -212,-15 1,14 3,27 4,39 68,11 145,14 212,15 4,0 7,0 11,0l0 17c-2,0 -5,0 -7,0l-4 0 -4 0c-79,0 -150,-6 -206,-14 2,15 5,27 8,35l0 0c25,10 51,18 81,23 28,4 59,7 97,8l1 0 2 0 0 0 2 0 0 0 2 0 0 0 2 0 1 0 1 0 1 0 2 0 0 0 2 0 0 0 2 0 1 0 2 0 0 0 2 0 0 0 2 0 0 0 3 0 2 0 0 0 3 0 0 0 2 0 0 0 2 0 0 0 2 0 1 0 2 0 0 0 2 0 0 0 2 0 0 0 2 0 1 0 1 0 1 0 2 0 0 0 2 0 0 0c39,-1 70,-4 97,-8 30,-5 56,-13 82,-23 11,-31 16,-119 19,-193 1,-30 3,-58 5,-79 -22,6 -50,10 -83,14 -34,4 -74,6 -117,7l0 0 -2 0 -1 0c-2,0 -4,0 -6,0l0 0 -1 0 -2 0 0 0 -3 0 0 0 -2 0 -1 0 -2 0 -1 0 -2 0 -1 0 -1 0 -2 0 -1 0 -2 0 -3 0 0 0 -2 0 -1 0 -2 0 -1 0 -1 0 -2 0 -1 0 -2 0 0 0 -3 0 0 0 -3 0 0 0 0 0 -6 0 -1 0 -2 0 0 0c-44,-1 -83,-3 -118,-7 -33,-4 -61,-8 -82,-14 1,15 2,32 3,51 70,13 153,17 223,17 4,0 7,0 11,0zm77 322l0 0 -1 0 0 0 0 0 0 0 0 0 -1 0 0 0 0 0 0 0 0 0 0 0 -1 0 0 0 0 0 0 0 0 0 0 0 0 0 -1 0 0 0 0 0 0 0 0 0 0 0 -1 0 0 0 0 0 0 0 0 0 -1 0 0 0 0 0 0 0 -1 0 0 0 0 0 0 0 0 0 -1 0 0 0 0 0 0 0 0 0 0 0 -1 0 0 0 -1 0 0 0 0 0 0 0 -1 1 0 0 0 0 0 0 0 0 0 0 -1 0 0 0 0 0 0 0 0 0 -1 0 0 0 0 0 0 0 0 0 -1 0 0 0 0 0 0 0c-21,1 -44,2 -70,2 -26,0 -49,-1 -70,-2l0 0 0 0 -1 0 0 0 0 0 0 0 0 0 -1 0 0 0 0 0 0 0 0 0 0 0 -1 0 0 0 0 0 0 0 0 0 -1 0 0 -1 0 0 0 0 0 0 0 0 -1 0 0 0 0 0 0 0 0 0 0 0 -1 0 0 0 0 0 0 0 0 0 -1 0 0 0 0 0 0 0 0 0 -1 0 0 0 0 0 0 0 0 0 0 0 -1 0 0 0 0 0 0 0 0 0 0 0 -1 0 0 0 0 0 0 0 0 0 0 0 -1 0 0 0 0 0 0 0 0 0 -1 0 0 0 0 0 0 0 0 0 0 0 0 0 -1 0 0 0 0 0 0 0 0 0 0 0 -1 0 0 0 5 4c13,10 26,20 40,30 1,1 23,2 34,3l5 0 5 0c11,-1 33,-2 35,-3 13,-10 26,-20 39,-30l5 -4zm-671 -2035c0,2 0,-3 0,0z"/>
  <path class="fil0" d="M1284 443c3,-29 3,-82 3,-140 -1,-79 -4,-167 -6,-214 0,-4 -1,-7 -3,-10 -1,-1 -3,-3 -4,-4l-17 -23 0 0c-13,-16 -84,-30 -190,-38 -108,-9 -256,-14 -419,-14 -163,0 -310,5 -418,14 -107,8 -177,22 -191,38l0 0 -16 23c-2,1 -3,3 -4,4 -2,3 -3,6 -3,10l0 0c-3,47 -6,135 -6,214 -1,58 0,111 2,140l0 1c0,2 0,3 0,5 0,11 8,21 25,29 13,6 32,12 56,17 18,4 38,7 60,11 22,3 47,6 74,9 57,6 123,11 195,14 70,3 146,5 224,5l2 0 2 0c79,0 154,-2 225,-5 72,-3 138,-8 194,-14 28,-3 52,-6 75,-9 21,-4 41,-7 59,-11 24,-5 43,-11 56,-17 17,-8 26,-18 26,-29 0,-2 0,-3 -1,-5l0 -1zm-1223 -377l0 -1c3,-8 68,-17 171,-25 108,-9 254,-14 416,-14 162,0 309,5 417,14 103,8 167,17 170,25l1 1 1 2 16 22c1,2 1,5 2,7 0,0 -1,0 -1,0 -34,14 -162,24 -172,25 -112,9 -267,14 -438,14 -171,0 -326,-5 -438,-14 -9,-1 -18,-2 -27,-3 -45,-5 -121,-14 -137,-22l1 -7 6 -7c3,2 7,4 12,6 31,11 108,21 213,27 47,4 101,6 158,8l0 -17c-57,-2 -110,-5 -157,-8 -104,-6 -179,-16 -209,-26 -3,-2 -6,-3 -7,-4l1 -1 1 -2zm1197 377l0 4 1 2c-1,1 -5,3 -11,5 -11,6 -28,11 -50,16 -17,3 -36,7 -58,10 -23,4 -47,7 -74,10 -56,6 -121,10 -193,14 -68,3 -144,4 -223,4l-2 0 -2 0c-79,0 -154,-1 -223,-4 -72,-4 -137,-8 -193,-14 -26,-3 -51,-6 -73,-10 -22,-3 -42,-7 -58,-10 -22,-5 -40,-10 -51,-16 -6,-2 -10,-4 -11,-5l1 -2 0 -4c-3,-27 -3,-81 -3,-140 1,-67 3,-140 5,-189 5,1 10,3 16,4 32,9 85,16 153,22 62,5 138,9 223,11l0 -1c66,2 138,3 212,3 172,0 327,-5 439,-14 85,-7 146,-17 173,-28 0,0 0,0 0,0 2,49 5,124 5,192 1,59 0,113 -3,140z"/>
  <polygon class="fil1" points="335,2076 335,2076 335,2076 "/>
  <polygon class="fil1" points="939,2076 939,2076 939,2076 939,2076 "/>
 </g>
</svg>
